# xmcd
#
# Track frame offsets:
#	150
#	11327
#	30069
#	44742
#	54895
#	65830
#	76770
#	87407
#	101635
#	112722
#	128210
#	140485
#
# Disc length: 2053 seconds
#
# Revision: 0
# Processed by: cddbd v1.5.2PL0 Copyright (c) Steve Scherf et al.
# Submitted via: EasyCDDAExtractor 10.0.6.1
#
DISCID=8f08030c
DTITLE=Lynn Beckman - Songs Of The Heart
DYEAR=1900
DGENRE=Gospel
TTITLE0=Little Of White Church Back Home
TTITLE1=My Homeland In Maryland
TTITLE2=A Child Of The King
TTITLE3=Where Does Your Life Go From Here
TTITLE4=Heavens Song
TTITLE5=Thats Just What We Need Now
TTITLE6=Jesus Loves Me, I Know
TTITLE7=The Rapture
TTITLE8=Our Love
TTITLE9=The Deeper The Valley, The Higher The Mountain
TTITLE10=The Old Wooden Chair
TTITLE11=Thanks Lord For Everything
EXTD=
EXTT0=
EXTT1=
EXTT2=
EXTT3=
EXTT4=
EXTT5=
EXTT6=
EXTT7=
EXTT8=
EXTT9=
EXTT10=
EXTT11=
PLAYORDER=
